<svg width="143" height="50" viewBox="0 0 143 50" fill="none" xmlns="http://www.w3.org/2000/svg">
<path d="M50 25C50 38.8071 38.8071 50 25 50C11.1929 50 0 38.8071 0 25C0 11.1929 11.1929 0 25 0C38.8071 0 50 11.1929 50 25Z" fill="#3DCFD3"/>
<path d="M35 25C35 30.5228 30.5228 35 25 35C19.4772 35 15 30.5228 15 25C15 19.4772 19.4772 15 25 15C30.5228 15 35 19.4772 35 25Z" fill="black"/>
<path d="M65.5273 15.5156L71.5703 30.5977L77.6133 15.5156H80.7744V34H78.3369V26.8018L78.5654 19.0322L72.4971 34H70.6309L64.5752 19.0703L64.8164 26.8018V34H62.3789V15.5156H65.5273ZM93.1904 34C93.055 33.7292 92.945 33.2467 92.8604 32.5527C91.7686 33.6868 90.4652 34.2539 88.9502 34.2539C87.596 34.2539 86.4831 33.873 85.6113 33.1113C84.748 32.3411 84.3164 31.3678 84.3164 30.1914C84.3164 28.7611 84.8581 27.6523 85.9414 26.8652C87.0332 26.0697 88.5651 25.6719 90.5371 25.6719H92.8223V24.5928C92.8223 23.7718 92.5768 23.1201 92.0859 22.6377C91.5951 22.1468 90.8714 21.9014 89.915 21.9014C89.0771 21.9014 88.3747 22.113 87.8076 22.5361C87.2406 22.9593 86.957 23.4714 86.957 24.0723H84.5957C84.5957 23.3867 84.8369 22.7266 85.3193 22.0918C85.8102 21.4486 86.4704 20.9408 87.2998 20.5684C88.1377 20.196 89.056 20.0098 90.0547 20.0098C91.6374 20.0098 92.8773 20.4076 93.7744 21.2031C94.6715 21.9902 95.137 23.0778 95.1709 24.4658V30.7881C95.1709 32.0492 95.3317 33.0521 95.6533 33.7969V34H93.1904ZM89.293 32.21C90.0293 32.21 90.7275 32.0195 91.3877 31.6387C92.0479 31.2578 92.526 30.7627 92.8223 30.1533V27.335H90.9814C88.1038 27.335 86.665 28.1771 86.665 29.8613C86.665 30.5977 86.9105 31.1732 87.4014 31.5879C87.8923 32.0026 88.5228 32.21 89.293 32.21ZM101.074 20.2637L101.15 21.9902C102.2 20.6699 103.571 20.0098 105.264 20.0098C108.167 20.0098 109.631 21.6475 109.656 24.9229V34H107.308V24.9102C107.299 23.9199 107.071 23.1878 106.622 22.7139C106.182 22.2399 105.492 22.0029 104.553 22.0029C103.791 22.0029 103.122 22.2061 102.547 22.6123C101.971 23.0186 101.523 23.5518 101.201 24.2119V34H98.8525V20.2637H101.074ZM121.679 32.6416C120.765 33.7165 119.423 34.2539 117.654 34.2539C116.19 34.2539 115.073 33.8307 114.303 32.9844C113.541 32.1296 113.156 30.8685 113.147 29.2012V20.2637H115.496V29.1377C115.496 31.2197 116.342 32.2607 118.035 32.2607C119.829 32.2607 121.023 31.5921 121.615 30.2549V20.2637H123.964V34H121.729L121.679 32.6416Z" fill="white"/>
</svg>
